# Blender 4.3.2
# www.blender.org
mtllib aufgabe_3_spaceship.mtl
o Cube
v 0.151633 0.399106 0.178631
v 0.149351 0.400627 0.478258
v -0.171682 0.397467 0.176177
v -0.173964 0.398988 0.475804
v 0.379190 0.018997 -1.191781
v 0.892266 0.033182 1.077852
v -0.365526 0.015222 -1.197432
v -0.913106 0.024030 1.064151
v 0.043746 -0.259475 0.017710
vn -0.0029 0.9635 -0.2677
vn -0.4574 0.8892 -0.0080
vn 0.0050 -1.0000 0.0051
vn -0.0083 0.8480 0.5300
vn -0.0050 1.0000 -0.0051
vn 0.4441 0.8960 -0.0012
vn -0.5762 0.8048 -0.1426
vn 0.5637 0.8153 -0.1325
vt 0.625000 0.500000
vt 0.875000 0.750000
vt 0.625000 0.750000
vt 0.375000 1.000000
vt 0.375000 0.750000
vt 0.625000 0.000000
vt 0.375000 0.250000
vt 0.375000 0.000000
vt 0.375000 0.500000
vt 0.125000 0.750000
vt 0.125000 0.500000
vt 0.875000 0.500000
vt 0.625000 1.000000
vt 0.625000 0.250000
s 0
usemtl Material
f 1/1/1 7/2/1 3/3/1
f 3/3/2 8/4/2 4/5/2
f 7/6/3 6/7/3 8/8/3
f 2/9/4 8/10/4 6/11/4
f 2/9/5 3/3/5 4/5/5
f 6/7/6 1/1/6 2/9/6
f 1/1/1 5/12/1 7/2/1
f 3/3/7 7/13/7 8/4/7
f 7/6/3 5/14/3 6/7/3
f 2/9/4 4/5/4 8/10/4
f 2/9/5 1/1/5 3/3/5
f 6/7/8 5/14/8 1/1/8
o Cylinder
v -0.443693 0.199836 0.666207
v -0.443693 0.198119 -0.557254
v -0.434110 0.198892 0.666209
v -0.434110 0.197175 -0.557253
v -0.424895 0.196097 0.666212
v -0.424895 0.194380 -0.557249
v -0.416403 0.191557 0.666219
v -0.416403 0.189841 -0.557243
v -0.408959 0.185448 0.666227
v -0.408959 0.183732 -0.557234
v -0.402850 0.178005 0.666238
v -0.402850 0.176288 -0.557224
v -0.398311 0.169512 0.666250
v -0.398311 0.167796 -0.557212
v -0.395515 0.160298 0.666263
v -0.395515 0.158581 -0.557199
v -0.394572 0.150714 0.666276
v -0.394572 0.148998 -0.557185
v -0.395515 0.141131 0.666290
v -0.395515 0.139415 -0.557172
v -0.398311 0.131917 0.666302
v -0.398311 0.130200 -0.557159
v -0.402850 0.123424 0.666314
v -0.402850 0.121708 -0.557147
v -0.408959 0.115980 0.666325
v -0.408959 0.114264 -0.557137
v -0.416403 0.109872 0.666333
v -0.416403 0.108155 -0.557128
v -0.424895 0.105332 0.666340
v -0.424895 0.103616 -0.557122
v -0.434110 0.102537 0.666344
v -0.434110 0.100821 -0.557118
v -0.443693 0.101593 0.666345
v -0.443693 0.099877 -0.557117
v -0.453276 0.102537 0.666344
v -0.453276 0.100821 -0.557118
v -0.462491 0.105332 0.666340
v -0.462491 0.103616 -0.557122
v -0.470983 0.109872 0.666333
v -0.470983 0.108155 -0.557128
v -0.478427 0.115980 0.666325
v -0.478427 0.114264 -0.557137
v -0.484536 0.123424 0.666314
v -0.484536 0.121708 -0.557147
v -0.489075 0.131917 0.666302
v -0.489075 0.130200 -0.557159
v -0.491870 0.141131 0.666290
v -0.491870 0.139415 -0.557172
v -0.492814 0.150714 0.666276
v -0.492814 0.148998 -0.557185
v -0.491870 0.160298 0.666263
v -0.491870 0.158581 -0.557199
v -0.489075 0.169512 0.666250
v -0.489075 0.167796 -0.557212
v -0.484536 0.178005 0.666238
v -0.484536 0.176288 -0.557224
v -0.478427 0.185448 0.666227
v -0.478427 0.183732 -0.557234
v -0.470983 0.191557 0.666219
v -0.470983 0.189841 -0.557243
v -0.462491 0.196097 0.666212
v -0.462491 0.194380 -0.557249
v -0.453276 0.198892 0.666209
v -0.453276 0.197175 -0.557253
vn -0.0980 -0.9952 0.0014
vn -0.2903 -0.9569 0.0013
vn -0.4714 -0.8819 0.0012
vn -0.6344 -0.7730 0.0011
vn -0.7730 -0.6344 0.0009
vn -0.8819 -0.4714 0.0007
vn -0.9569 -0.2903 0.0004
vn -0.9952 -0.0980 0.0001
vn -0.9952 0.0980 -0.0001
vn -0.9569 0.2903 -0.0004
vn -0.8819 0.4714 -0.0007
vn -0.7730 0.6344 -0.0009
vn -0.6344 0.7730 -0.0011
vn -0.4714 0.8819 -0.0012
vn -0.2903 0.9569 -0.0013
vn -0.0980 0.9952 -0.0014
vn 0.0980 0.9952 -0.0014
vn 0.2903 0.9569 -0.0013
vn 0.4714 0.8819 -0.0012
vn 0.6344 0.7730 -0.0011
vn 0.7730 0.6344 -0.0009
vn 0.8819 0.4714 -0.0007
vn 0.9569 0.2903 -0.0004
vn 0.9952 0.0980 -0.0001
vn 0.9952 -0.0980 0.0001
vn 0.9569 -0.2903 0.0004
vn 0.8819 -0.4714 0.0007
vn 0.7730 -0.6344 0.0009
vn 0.6344 -0.7730 0.0011
vn 0.4714 -0.8819 0.0012
vn -0.0000 0.0014 1.0000
vn 0.2903 -0.9569 0.0013
vn 0.0980 -0.9952 0.0014
vn -0.0000 -0.0014 -1.0000
vn -0.0000 0.0013 1.0000
vn -0.0000 -0.0013 -1.0000
vt 1.000000 1.000000
vt 0.968750 0.500000
vt 1.000000 0.500000
vt 0.968750 1.000000
vt 0.937500 0.500000
vt 0.937500 1.000000
vt 0.906250 0.500000
vt 0.906250 1.000000
vt 0.875000 0.500000
vt 0.875000 1.000000
vt 0.843750 0.500000
vt 0.843750 1.000000
vt 0.812500 0.500000
vt 0.812500 1.000000
vt 0.781250 0.500000
vt 0.781250 1.000000
vt 0.750000 0.500000
vt 0.750000 1.000000
vt 0.718750 0.500000
vt 0.718750 1.000000
vt 0.687500 0.500000
vt 0.687500 1.000000
vt 0.656250 0.500000
vt 0.656250 1.000000
vt 0.625000 0.500000
vt 0.625000 1.000000
vt 0.593750 0.500000
vt 0.593750 1.000000
vt 0.562500 0.500000
vt 0.562500 1.000000
vt 0.531250 0.500000
vt 0.531250 1.000000
vt 0.500000 0.500000
vt 0.500000 1.000000
vt 0.468750 0.500000
vt 0.468750 1.000000
vt 0.437500 0.500000
vt 0.437500 1.000000
vt 0.406250 0.500000
vt 0.406250 1.000000
vt 0.375000 0.500000
vt 0.375000 1.000000
vt 0.343750 0.500000
vt 0.312500 1.000000
vt 0.312500 0.500000
vt 0.281250 0.500000
vt 0.250000 1.000000
vt 0.250000 0.500000
vt 0.218750 0.500000
vt 0.218750 1.000000
vt 0.187500 0.500000
vt 0.156250 1.000000
vt 0.156250 0.500000
vt 0.125000 0.500000
vt 0.093750 1.000000
vt 0.093750 0.500000
vt 0.062500 1.000000
vt 0.062500 0.500000
vt 0.158156 0.028269
vt 0.471731 0.158156
vt 0.341844 0.471731
vt 0.031250 0.500000
vt 0.031250 1.000000
vt 0.000000 0.500000
vt 0.796822 0.014612
vt 0.514612 0.203178
vt 0.703178 0.485388
vt 0.343750 1.000000
vt 0.281250 1.000000
vt 0.187500 1.000000
vt 0.125000 1.000000
vt 0.296822 0.485388
vt 0.250000 0.490000
vt 0.203178 0.485388
vt 0.158156 0.471731
vt 0.116663 0.449553
vt 0.080294 0.419706
vt 0.050447 0.383337
vt 0.028269 0.341844
vt 0.014612 0.296822
vt 0.010000 0.250000
vt 0.014612 0.203178
vt 0.028269 0.158156
vt 0.050447 0.116663
vt 0.080294 0.080294
vt 0.116663 0.050447
vt 0.203178 0.014612
vt 0.250000 0.010000
vt 0.296822 0.014612
vt 0.341844 0.028269
vt 0.383337 0.050447
vt 0.419706 0.080294
vt 0.449553 0.116663
vt 0.485388 0.203178
vt 0.490000 0.250000
vt 0.485388 0.296822
vt 0.471731 0.341844
vt 0.449553 0.383337
vt 0.419706 0.419706
vt 0.383337 0.449553
vt 0.000000 1.000000
vt 0.750000 0.490000
vt 0.796822 0.485388
vt 0.841844 0.471731
vt 0.883337 0.449553
vt 0.919706 0.419706
vt 0.949553 0.383337
vt 0.971731 0.341844
vt 0.985388 0.296822
vt 0.990000 0.250000
vt 0.985388 0.203178
vt 0.971731 0.158156
vt 0.949553 0.116663
vt 0.919706 0.080294
vt 0.883337 0.050447
vt 0.841844 0.028269
vt 0.750000 0.010000
vt 0.703178 0.014612
vt 0.658156 0.028269
vt 0.616663 0.050447
vt 0.580294 0.080294
vt 0.550447 0.116663
vt 0.528269 0.158156
vt 0.510000 0.250000
vt 0.514612 0.296822
vt 0.528269 0.341844
vt 0.550447 0.383337
vt 0.580294 0.419706
vt 0.616663 0.449553
vt 0.658156 0.471731
s 0
usemtl Material.001
f 11/15/9 12/16/9 10/17/9
f 13/18/10 14/19/10 12/16/10
f 15/20/11 16/21/11 14/19/11
f 17/22/12 18/23/12 16/21/12
f 19/24/13 20/25/13 18/23/13
f 21/26/14 22/27/14 20/25/14
f 23/28/15 24/29/15 22/27/15
f 25/30/16 26/31/16 24/29/16
f 27/32/17 28/33/17 26/31/17
f 29/34/18 30/35/18 28/33/18
f 31/36/19 32/37/19 30/35/19
f 33/38/20 34/39/20 32/37/20
f 35/40/21 36/41/21 34/39/21
f 37/42/22 38/43/22 36/41/22
f 39/44/23 40/45/23 38/43/23
f 41/46/24 42/47/24 40/45/24
f 43/48/25 44/49/25 42/47/25
f 45/50/26 46/51/26 44/49/26
f 47/52/27 48/53/27 46/51/27
f 49/54/28 50/55/28 48/53/28
f 51/56/29 52/57/29 50/55/29
f 52/57/30 55/58/30 54/59/30
f 55/58/31 56/60/31 54/59/31
f 56/60/32 59/61/32 58/62/32
f 59/61/33 60/63/33 58/62/33
f 61/64/34 62/65/34 60/63/34
f 62/65/35 65/66/35 64/67/35
f 65/66/36 66/68/36 64/67/36
f 66/68/37 69/69/37 68/70/37
f 68/70/38 71/71/38 70/72/38
f 47/73/39 31/74/39 15/75/39
f 71/71/40 72/76/40 70/72/40
f 73/77/41 10/78/41 72/76/41
f 40/79/42 56/80/42 72/81/42
f 11/15/9 13/18/9 12/16/9
f 13/18/10 15/20/10 14/19/10
f 15/20/11 17/22/11 16/21/11
f 17/22/12 19/24/12 18/23/12
f 19/24/13 21/26/13 20/25/13
f 21/26/14 23/28/14 22/27/14
f 23/28/15 25/30/15 24/29/15
f 25/30/16 27/32/16 26/31/16
f 27/32/17 29/34/17 28/33/17
f 29/34/18 31/36/18 30/35/18
f 31/36/19 33/38/19 32/37/19
f 33/38/20 35/40/20 34/39/20
f 35/40/21 37/42/21 36/41/21
f 37/42/22 39/44/22 38/43/22
f 39/44/23 41/46/23 40/45/23
f 41/46/24 43/48/24 42/47/24
f 43/48/25 45/50/25 44/49/25
f 45/50/26 47/52/26 46/51/26
f 47/52/27 49/54/27 48/53/27
f 49/54/28 51/56/28 50/55/28
f 51/56/29 53/82/29 52/57/29
f 52/57/30 53/82/30 55/58/30
f 55/58/31 57/83/31 56/60/31
f 56/60/32 57/83/32 59/61/32
f 59/61/33 61/64/33 60/63/33
f 61/64/34 63/84/34 62/65/34
f 62/65/35 63/84/35 65/66/35
f 65/66/36 67/85/36 66/68/36
f 66/68/37 67/85/37 69/69/37
f 68/70/38 69/69/38 71/71/38
f 15/75/39 13/86/39 11/87/39
f 11/87/39 73/88/39 71/89/39
f 71/89/43 69/90/43 67/91/43
f 67/91/39 65/92/39 63/93/39
f 63/93/39 61/94/39 59/95/39
f 59/95/39 57/96/39 55/97/39
f 55/97/39 53/98/39 51/99/39
f 51/99/43 49/100/43 47/73/43
f 47/73/39 45/101/39 43/102/39
f 43/102/39 41/103/39 39/104/39
f 39/104/43 37/105/43 35/106/43
f 35/106/39 33/107/39 31/74/39
f 31/74/39 29/108/39 27/109/39
f 27/109/39 25/110/39 23/111/39
f 23/111/39 21/112/39 19/113/39
f 19/113/39 17/114/39 15/75/39
f 15/75/39 11/87/39 71/89/39
f 71/89/39 67/91/39 63/93/39
f 63/93/39 59/95/39 55/97/39
f 55/97/39 51/99/39 47/73/39
f 47/73/39 43/102/39 39/104/39
f 39/104/39 35/106/39 31/74/39
f 31/74/39 27/109/39 23/111/39
f 23/111/39 19/113/39 15/75/39
f 15/75/39 71/89/39 63/93/39
f 63/93/39 55/97/39 47/73/39
f 47/73/39 39/104/39 31/74/39
f 31/74/39 23/111/39 15/75/39
f 15/75/39 63/93/39 47/73/39
f 71/71/40 73/77/40 72/76/40
f 73/77/41 11/115/41 10/78/41
f 72/81/44 10/116/44 12/117/44
f 12/117/44 14/118/44 16/119/44
f 16/119/42 18/120/42 20/121/42
f 20/121/42 22/122/42 24/123/42
f 24/123/42 26/124/42 28/125/42
f 28/125/42 30/126/42 32/127/42
f 32/127/42 34/128/42 36/129/42
f 36/129/44 38/130/44 40/79/44
f 40/79/44 42/131/44 44/132/44
f 44/132/44 46/133/44 48/134/44
f 48/134/42 50/135/42 52/136/42
f 52/136/42 54/137/42 56/80/42
f 56/80/42 58/138/42 60/139/42
f 60/139/42 62/140/42 64/141/42
f 64/141/42 66/142/42 68/143/42
f 68/143/44 70/144/44 72/81/44
f 72/81/42 12/117/42 16/119/42
f 16/119/42 20/121/42 24/123/42
f 24/123/42 28/125/42 32/127/42
f 32/127/42 36/129/42 40/79/42
f 40/79/42 44/132/42 48/134/42
f 48/134/42 52/136/42 56/80/42
f 56/80/42 60/139/42 64/141/42
f 64/141/42 68/143/42 72/81/42
f 72/81/42 16/119/42 24/123/42
f 24/123/42 32/127/42 40/79/42
f 40/79/42 48/134/42 56/80/42
f 56/80/42 64/141/42 72/81/42
f 72/81/42 24/123/42 40/79/42
o Cylinder.001
v 0.452548 0.199836 0.666207
v 0.452548 0.198119 -0.557254
v 0.462131 0.198892 0.666209
v 0.462131 0.197175 -0.557253
v 0.471346 0.196097 0.666212
v 0.471346 0.194380 -0.557249
v 0.479838 0.191557 0.666219
v 0.479838 0.189841 -0.557243
v 0.487282 0.185448 0.666227
v 0.487282 0.183732 -0.557234
v 0.493391 0.178005 0.666238
v 0.493391 0.176288 -0.557224
v 0.497930 0.169512 0.666250
v 0.497930 0.167796 -0.557212
v 0.500726 0.160298 0.666263
v 0.500726 0.158581 -0.557199
v 0.501669 0.150714 0.666276
v 0.501669 0.148998 -0.557185
v 0.500726 0.141131 0.666290
v 0.500726 0.139415 -0.557172
v 0.497930 0.131917 0.666302
v 0.497930 0.130200 -0.557159
v 0.493391 0.123424 0.666314
v 0.493391 0.121708 -0.557147
v 0.487282 0.115980 0.666325
v 0.487282 0.114264 -0.557137
v 0.479838 0.109872 0.666333
v 0.479838 0.108155 -0.557128
v 0.471346 0.105332 0.666340
v 0.471346 0.103616 -0.557122
v 0.462131 0.102537 0.666344
v 0.462131 0.100821 -0.557118
v 0.452548 0.101593 0.666345
v 0.452548 0.099877 -0.557117
v 0.442965 0.102537 0.666344
v 0.442965 0.100821 -0.557118
v 0.433750 0.105332 0.666340
v 0.433750 0.103616 -0.557122
v 0.425258 0.109872 0.666333
v 0.425258 0.108155 -0.557128
v 0.417814 0.115980 0.666325
v 0.417814 0.114264 -0.557137
v 0.411705 0.123424 0.666314
v 0.411705 0.121708 -0.557147
v 0.407166 0.131917 0.666302
v 0.407166 0.130200 -0.557159
v 0.404371 0.141131 0.666290
v 0.404371 0.139415 -0.557172
v 0.403427 0.150714 0.666276
v 0.403427 0.148998 -0.557185
v 0.404371 0.160298 0.666263
v 0.404371 0.158581 -0.557199
v 0.407166 0.169512 0.666250
v 0.407166 0.167796 -0.557212
v 0.411705 0.178005 0.666238
v 0.411705 0.176288 -0.557224
v 0.417814 0.185448 0.666227
v 0.417814 0.183732 -0.557234
v 0.425258 0.191557 0.666219
v 0.425258 0.189841 -0.557243
v 0.433750 0.196097 0.666212
v 0.433750 0.194380 -0.557249
v 0.442965 0.198892 0.666209
v 0.442965 0.197175 -0.557253
vn -0.0980 -0.9952 0.0014
vn -0.2903 -0.9569 0.0013
vn -0.4714 -0.8819 0.0012
vn -0.6344 -0.7730 0.0011
vn -0.7730 -0.6344 0.0009
vn -0.8819 -0.4714 0.0007
vn -0.9569 -0.2903 0.0004
vn -0.9952 -0.0980 0.0001
vn -0.9952 0.0980 -0.0001
vn -0.9569 0.2903 -0.0004
vn -0.8819 0.4714 -0.0007
vn -0.7730 0.6344 -0.0009
vn -0.6344 0.7730 -0.0011
vn -0.4714 0.8819 -0.0012
vn -0.2903 0.9569 -0.0013
vn -0.0980 0.9952 -0.0014
vn 0.0980 0.9952 -0.0014
vn 0.2903 0.9569 -0.0013
vn 0.4714 0.8819 -0.0012
vn 0.6344 0.7730 -0.0011
vn 0.7730 0.6344 -0.0009
vn 0.8819 0.4714 -0.0007
vn 0.9569 0.2903 -0.0004
vn 0.9952 0.0980 -0.0001
vn 0.9952 -0.0980 0.0001
vn 0.9569 -0.2903 0.0004
vn 0.8819 -0.4714 0.0007
vn 0.7730 -0.6344 0.0009
vn 0.6344 -0.7730 0.0011
vn 0.4714 -0.8819 0.0012
vn -0.0000 0.0014 1.0000
vn 0.2903 -0.9569 0.0013
vn 0.0980 -0.9952 0.0014
vn -0.0000 -0.0014 -1.0000
vn -0.0000 0.0015 1.0000
vn 0.0001 0.0013 1.0000
vn -0.0001 0.0014 1.0000
vn 0.0001 0.0014 1.0000
vn -0.0001 0.0013 1.0000
vn -0.0000 -0.0013 -1.0000
vt 1.000000 1.000000
vt 0.968750 0.500000
vt 1.000000 0.500000
vt 0.968750 1.000000
vt 0.937500 0.500000
vt 0.937500 1.000000
vt 0.906250 0.500000
vt 0.906250 1.000000
vt 0.875000 0.500000
vt 0.875000 1.000000
vt 0.843750 0.500000
vt 0.843750 1.000000
vt 0.812500 0.500000
vt 0.812500 1.000000
vt 0.781250 0.500000
vt 0.750000 1.000000
vt 0.750000 0.500000
vt 0.718750 0.500000
vt 0.718750 1.000000
vt 0.687500 0.500000
vt 0.687500 1.000000
vt 0.656250 0.500000
vt 0.656250 1.000000
vt 0.625000 0.500000
vt 0.593750 1.000000
vt 0.593750 0.500000
vt 0.562500 1.000000
vt 0.562500 0.500000
vt 0.531250 0.500000
vt 0.531250 1.000000
vt 0.500000 0.500000
vt 0.500000 1.000000
vt 0.468750 0.500000
vt 0.468750 1.000000
vt 0.437500 0.500000
vt 0.437500 1.000000
vt 0.406250 0.500000
vt 0.375000 1.000000
vt 0.375000 0.500000
vt 0.343750 1.000000
vt 0.343750 0.500000
vt 0.312500 1.000000
vt 0.312500 0.500000
vt 0.281250 0.500000
vt 0.281250 1.000000
vt 0.250000 0.500000
vt 0.250000 1.000000
vt 0.218750 0.500000
vt 0.218750 1.000000
vt 0.187500 0.500000
vt 0.156250 1.000000
vt 0.156250 0.500000
vt 0.125000 0.500000
vt 0.093750 1.000000
vt 0.093750 0.500000
vt 0.062500 1.000000
vt 0.062500 0.500000
vt 0.158156 0.028269
vt 0.471731 0.158156
vt 0.341844 0.471731
vt 0.031250 0.500000
vt 0.031250 1.000000
vt 0.000000 0.500000
vt 0.796822 0.014612
vt 0.514612 0.203178
vt 0.703178 0.485388
vt 0.781250 1.000000
vt 0.625000 1.000000
vt 0.406250 1.000000
vt 0.187500 1.000000
vt 0.125000 1.000000
vt 0.296822 0.485388
vt 0.250000 0.490000
vt 0.203178 0.485388
vt 0.158156 0.471731
vt 0.116663 0.449553
vt 0.080294 0.419706
vt 0.050447 0.383337
vt 0.028269 0.341844
vt 0.014612 0.296822
vt 0.010000 0.250000
vt 0.014612 0.203178
vt 0.028269 0.158156
vt 0.050447 0.116663
vt 0.080294 0.080294
vt 0.116663 0.050447
vt 0.203178 0.014612
vt 0.250000 0.010000
vt 0.296822 0.014612
vt 0.341844 0.028269
vt 0.383337 0.050447
vt 0.419706 0.080294
vt 0.449553 0.116663
vt 0.485388 0.203178
vt 0.490000 0.250000
vt 0.485388 0.296822
vt 0.471731 0.341844
vt 0.449553 0.383337
vt 0.419706 0.419706
vt 0.383337 0.449553
vt 0.000000 1.000000
vt 0.750000 0.490000
vt 0.796822 0.485388
vt 0.841844 0.471731
vt 0.883337 0.449553
vt 0.919706 0.419706
vt 0.949553 0.383337
vt 0.971731 0.341844
vt 0.985388 0.296822
vt 0.990000 0.250000
vt 0.985388 0.203178
vt 0.971731 0.158156
vt 0.949553 0.116663
vt 0.919706 0.080294
vt 0.883337 0.050447
vt 0.841844 0.028269
vt 0.750000 0.010000
vt 0.703178 0.014612
vt 0.658156 0.028269
vt 0.616663 0.050447
vt 0.580294 0.080294
vt 0.550447 0.116663
vt 0.528269 0.158156
vt 0.510000 0.250000
vt 0.514612 0.296822
vt 0.528269 0.341844
vt 0.550447 0.383337
vt 0.580294 0.419706
vt 0.616663 0.449553
vt 0.658156 0.471731
s 0
usemtl Material.002
f 75/145/45 76/146/45 74/147/45
f 77/148/46 78/149/46 76/146/46
f 79/150/47 80/151/47 78/149/47
f 81/152/48 82/153/48 80/151/48
f 83/154/49 84/155/49 82/153/49
f 85/156/50 86/157/50 84/155/50
f 87/158/51 88/159/51 86/157/51
f 88/159/52 91/160/52 90/161/52
f 91/160/53 92/162/53 90/161/53
f 93/163/54 94/164/54 92/162/54
f 95/165/55 96/166/55 94/164/55
f 97/167/56 98/168/56 96/166/56
f 98/168/57 101/169/57 100/170/57
f 100/170/58 103/171/58 102/172/58
f 103/171/59 104/173/59 102/172/59
f 105/174/60 106/175/60 104/173/60
f 107/176/61 108/177/61 106/175/61
f 109/178/62 110/179/62 108/177/62
f 111/180/63 112/181/63 110/179/63
f 112/181/64 115/182/64 114/183/64
f 114/183/65 117/184/65 116/185/65
f 116/185/66 119/186/66 118/187/66
f 119/186/67 120/188/67 118/187/67
f 121/189/68 122/190/68 120/188/68
f 123/191/69 124/192/69 122/190/69
f 125/193/70 126/194/70 124/192/70
f 126/194/71 129/195/71 128/196/71
f 129/195/72 130/197/72 128/196/72
f 130/197/73 133/198/73 132/199/73
f 132/199/74 135/200/74 134/201/74
f 111/202/75 95/203/75 79/204/75
f 135/200/76 136/205/76 134/201/76
f 137/206/77 74/207/77 136/205/77
f 104/208/78 120/209/78 136/210/78
f 75/145/45 77/148/45 76/146/45
f 77/148/46 79/150/46 78/149/46
f 79/150/47 81/152/47 80/151/47
f 81/152/48 83/154/48 82/153/48
f 83/154/49 85/156/49 84/155/49
f 85/156/50 87/158/50 86/157/50
f 87/158/51 89/211/51 88/159/51
f 88/159/52 89/211/52 91/160/52
f 91/160/53 93/163/53 92/162/53
f 93/163/54 95/165/54 94/164/54
f 95/165/55 97/167/55 96/166/55
f 97/167/56 99/212/56 98/168/56
f 98/168/57 99/212/57 101/169/57
f 100/170/58 101/169/58 103/171/58
f 103/171/59 105/174/59 104/173/59
f 105/174/60 107/176/60 106/175/60
f 107/176/61 109/178/61 108/177/61
f 109/178/62 111/180/62 110/179/62
f 111/180/63 113/213/63 112/181/63
f 112/181/64 113/213/64 115/182/64
f 114/183/65 115/182/65 117/184/65
f 116/185/66 117/184/66 119/186/66
f 119/186/67 121/189/67 120/188/67
f 121/189/68 123/191/68 122/190/68
f 123/191/69 125/193/69 124/192/69
f 125/193/70 127/214/70 126/194/70
f 126/194/71 127/214/71 129/195/71
f 129/195/72 131/215/72 130/197/72
f 130/197/73 131/215/73 133/198/73
f 132/199/74 133/198/74 135/200/74
f 79/204/75 77/216/75 75/217/75
f 75/217/75 137/218/75 135/219/75
f 135/219/79 133/220/79 131/221/79
f 131/221/80 129/222/80 127/223/80
f 127/223/75 125/224/75 123/225/75
f 123/225/81 121/226/81 119/227/81
f 119/227/75 117/228/75 115/229/75
f 115/229/75 113/230/75 111/202/75
f 111/202/75 109/231/75 107/232/75
f 107/232/75 105/233/75 103/234/75
f 103/234/75 101/235/75 99/236/75
f 99/236/75 97/237/75 95/203/75
f 95/203/82 93/238/82 91/239/82
f 91/239/75 89/240/75 87/241/75
f 87/241/83 85/242/83 83/243/83
f 83/243/79 81/244/79 79/204/79
f 79/204/75 75/217/75 135/219/75
f 135/219/75 131/221/75 127/223/75
f 127/223/75 123/225/75 119/227/75
f 119/227/75 115/229/75 111/202/75
f 111/202/75 107/232/75 103/234/75
f 103/234/75 99/236/75 95/203/75
f 95/203/75 91/239/75 87/241/75
f 87/241/75 83/243/75 79/204/75
f 79/204/75 135/219/75 127/223/75
f 127/223/75 119/227/75 111/202/75
f 111/202/75 103/234/75 95/203/75
f 95/203/75 87/241/75 79/204/75
f 79/204/75 127/223/75 111/202/75
f 135/200/76 137/206/76 136/205/76
f 137/206/77 75/245/77 74/207/77
f 136/210/84 74/246/84 76/247/84
f 76/247/78 78/248/78 80/249/78
f 80/249/78 82/250/78 84/251/78
f 84/251/78 86/252/78 88/253/78
f 88/253/78 90/254/78 92/255/78
f 92/255/78 94/256/78 96/257/78
f 96/257/84 98/258/84 100/259/84
f 100/259/78 102/260/78 104/208/78
f 104/208/84 106/261/84 108/262/84
f 108/262/78 110/263/78 112/264/78
f 112/264/84 114/265/84 116/266/84
f 116/266/78 118/267/78 120/209/78
f 120/209/78 122/268/78 124/269/78
f 124/269/78 126/270/78 128/271/78
f 128/271/78 130/272/78 132/273/78
f 132/273/78 134/274/78 136/210/78
f 136/210/78 76/247/78 80/249/78
f 80/249/78 84/251/78 88/253/78
f 88/253/78 92/255/78 96/257/78
f 96/257/78 100/259/78 104/208/78
f 104/208/78 108/262/78 112/264/78
f 112/264/78 116/266/78 120/209/78
f 120/209/78 124/269/78 128/271/78
f 128/271/78 132/273/78 136/210/78
f 136/210/78 80/249/78 88/253/78
f 88/253/78 96/257/78 104/208/78
f 104/208/78 112/264/78 120/209/78
f 120/209/78 128/271/78 136/210/78
f 136/210/78 88/253/78 104/208/78
